<svg width="24" height="25" viewBox="0 0 24 25" fill="none" xmlns="http://www.w3.org/2000/svg">
<path fill-rule="evenodd" clip-rule="evenodd" d="M20.924 12.25H18.23C16.806 12.25 15.749 13.309 15.749 14.5C15.749 15.691 16.806 16.75 18.229 16.75H20.947C21.153 16.737 21.242 16.598 21.249 16.514V12.486C21.242 12.402 21.153 12.263 20.947 12.251H20.923L20.924 12.25ZM20.85 10.75C20.916 10.75 20.98 10.75 21.04 10.754C21.91 10.807 22.681 11.464 22.746 12.382C22.75 12.442 22.75 12.507 22.75 12.567V16.433C22.75 16.493 22.75 16.558 22.746 16.618C22.681 17.536 21.91 18.193 21.039 18.247C20.98 18.25 20.916 18.25 20.849 18.25H18.231C16.086 18.25 14.25 16.622 14.25 14.5C14.25 12.378 16.086 10.75 18.23 10.75H20.85Z" fill="#182EA6"/>
<path d="M19 14.5C19 14.7652 18.8946 15.0196 18.7071 15.2071C18.5196 15.3946 18.2652 15.5 18 15.5C17.7348 15.5 17.4804 15.3946 17.2929 15.2071C17.1054 15.0196 17 14.7652 17 14.5C17 14.2348 17.1054 13.9804 17.2929 13.7929C17.4804 13.6054 17.7348 13.5 18 13.5C18.2652 13.5 18.5196 13.6054 18.7071 13.7929C18.8946 13.9804 19 14.2348 19 14.5Z" fill="#182EA6"/>
<path fill-rule="evenodd" clip-rule="evenodd" d="M20.85 10.75C21.1369 10.7392 21.4225 10.7939 21.685 10.91C21.578 9.304 21.283 8.066 20.359 7.141C19.61 6.393 18.661 6.061 17.489 5.903L17.447 5.898C17.4365 5.89006 17.4259 5.88239 17.415 5.875L13.679 3.398C13.031 2.97507 12.2738 2.74988 11.5 2.74988C10.7262 2.74988 9.96905 2.97507 9.321 3.398L5.586 5.875C5.5748 5.88238 5.5638 5.89004 5.553 5.898L5.511 5.903C4.339 6.061 3.39 6.393 2.641 7.141C1.893 7.89 1.561 8.839 1.403 10.011C1.25 11.151 1.25 12.606 1.25 14.444V14.556C1.25 16.394 1.25 17.85 1.403 18.989C1.561 20.161 1.893 21.11 2.641 21.859C3.39 22.607 4.339 22.939 5.511 23.097C6.651 23.25 8.106 23.25 9.944 23.25H13.056C14.894 23.25 16.35 23.25 17.489 23.097C18.661 22.939 19.61 22.607 20.359 21.859C21.283 20.934 21.578 19.696 21.685 18.089C21.483 18.179 21.265 18.233 21.039 18.247C20.98 18.25 20.916 18.25 20.849 18.25H20.168C20.054 19.591 19.797 20.3 19.298 20.798C18.875 21.221 18.295 21.475 17.289 21.61C16.262 21.748 14.907 21.75 13 21.75H10C8.093 21.75 6.739 21.748 5.71 21.61C4.705 21.475 4.125 21.221 3.702 20.798C3.279 20.375 3.025 19.795 2.89 18.789C2.752 17.762 2.75 16.407 2.75 14.5C2.75 12.593 2.752 11.239 2.89 10.21C3.025 9.205 3.279 8.625 3.702 8.202C4.125 7.779 4.705 7.525 5.711 7.39C6.739 7.252 8.093 7.25 10 7.25H13C14.907 7.25 16.262 7.252 17.29 7.39C18.295 7.525 18.875 7.779 19.298 8.202C19.797 8.7 20.054 9.409 20.168 10.75H20.85ZM9.944 5.75H13.056C13.573 5.75 14.059 5.75 14.516 5.753L12.85 4.648C12.05 4.118 10.95 4.118 10.15 4.648L8.483 5.753C8.941 5.75 9.427 5.75 9.943 5.75H9.944Z" fill="#182EA6"/>
<path d="M6 9.75C5.80109 9.75 5.61032 9.82902 5.46967 9.96967C5.32902 10.1103 5.25 10.3011 5.25 10.5C5.25 10.6989 5.32902 10.8897 5.46967 11.0303C5.61032 11.171 5.80109 11.25 6 11.25H10C10.1989 11.25 10.3897 11.171 10.5303 11.0303C10.671 10.8897 10.75 10.6989 10.75 10.5C10.75 10.3011 10.671 10.1103 10.5303 9.96967C10.3897 9.82902 10.1989 9.75 10 9.75H6Z" fill="#182EA6"/>
<path d="M19 14.5C19 14.7652 18.8946 15.0196 18.7071 15.2071C18.5196 15.3946 18.2652 15.5 18 15.5C17.7348 15.5 17.4804 15.3946 17.2929 15.2071C17.1054 15.0196 17 14.7652 17 14.5C17 14.2348 17.1054 13.9804 17.2929 13.7929C17.4804 13.6054 17.7348 13.5 18 13.5C18.2652 13.5 18.5196 13.6054 18.7071 13.7929C18.8946 13.9804 19 14.2348 19 14.5Z" fill="#182EA6"/>
</svg>
