<svg width="25" height="25" viewBox="0 0 25 25" fill="none" xmlns="http://www.w3.org/2000/svg">
<path d="M4.6875 21.875C4.25347 21.875 3.88472 21.7229 3.58125 21.4188C3.27708 21.1153 3.125 20.7465 3.125 20.3125V18.3333L7.29167 14.6354V21.875H4.6875ZM8.33333 21.875V17.7083H16.6667V21.875H8.33333ZM17.7083 21.875V13.3333L13.2552 9.375L16.4062 6.58854L21.3542 10.9896C21.5278 11.1458 21.658 11.3236 21.7448 11.5229C21.8316 11.7229 21.875 11.9358 21.875 12.1615V20.3125C21.875 20.7465 21.7229 21.1153 21.4187 21.4188C21.1153 21.7229 20.7465 21.875 20.3125 21.875H17.7083ZM3.125 16.9271V12.1615C3.125 11.9358 3.1684 11.7187 3.25521 11.5104C3.34201 11.3021 3.47222 11.1285 3.64583 10.9896L11.4583 4.0625C11.5972 3.92361 11.758 3.82361 11.9406 3.7625C12.1226 3.70208 12.309 3.67188 12.5 3.67188C12.691 3.67188 12.8778 3.70208 13.0604 3.7625C13.2424 3.82361 13.4028 3.92361 13.5417 4.0625L15.625 5.91146L3.125 16.9271Z" fill="#212121"/>
</svg>
