<svg width="25" height="25" viewBox="0 0 25 25" fill="none" xmlns="https://www.w3.org/2000/svg">
<path d="M12.5 2.5C11.8911 2.4994 11.3029 2.72105 10.8458 3.12336C10.3887 3.52567 10.0942 4.08097 10.0174 4.68503C9.94073 5.28909 10.0871 5.90039 10.4291 6.40418C10.7711 6.90797 11.2853 7.26962 11.875 7.42125V11.875C11.875 12.0408 11.9408 12.1997 12.0581 12.3169C12.1753 12.4342 12.3342 12.5 12.5 12.5C12.6658 12.5 12.8247 12.4342 12.9419 12.3169C13.0592 12.1997 13.125 12.0408 13.125 11.875V7.42125C13.7147 7.26962 14.2289 6.90797 14.5709 6.40418C14.9129 5.90039 15.0593 5.28909 14.9825 4.68503C14.9058 4.08097 14.6113 3.52567 14.1542 3.12336C13.6971 2.72105 13.1089 2.4994 12.5 2.5ZM3.75 6.25C3.75 5.91848 3.8817 5.60054 4.11612 5.36612C4.35054 5.1317 4.66848 5 5 5C5.33152 5 5.64946 5.1317 5.88388 5.36612C6.1183 5.60054 6.25 5.91848 6.25 6.25V11.25C6.25 11.4158 6.31585 11.5747 6.43306 11.6919C6.55027 11.8092 6.70924 11.875 6.875 11.875H10C10.1658 11.875 10.3247 11.8092 10.4419 11.6919C10.5592 11.5747 10.625 11.4158 10.625 11.25C10.625 11.0842 10.5592 10.9253 10.4419 10.8081C10.3247 10.6908 10.1658 10.625 10 10.625H7.5V6.25C7.5 5.58696 7.23661 4.95108 6.76777 4.48223C6.29893 4.01339 5.66304 3.75 5 3.75C4.33696 3.75 3.70107 4.01339 3.23223 4.48223C2.76339 4.95108 2.5 5.58696 2.5 6.25V20C2.5 20.663 2.76339 21.2989 3.23223 21.7678C3.70107 22.2366 4.33696 22.5 5 22.5C5.66304 22.5 6.29893 22.2366 6.76777 21.7678C7.23661 21.2989 7.5 20.663 7.5 20V15.625H10V20C10 20.663 10.2634 21.2989 10.7322 21.7678C11.2011 22.2366 11.837 22.5 12.5 22.5C13.163 22.5 13.7989 22.2366 14.2678 21.7678C14.7366 21.2989 15 20.663 15 20V16.25H20.625C21.1223 16.25 21.5992 16.0525 21.9508 15.7008C22.3025 15.3492 22.5 14.8723 22.5 14.375V6.25C22.5 5.58696 22.2366 4.95108 21.7678 4.48223C21.2989 4.01339 20.663 3.75 20 3.75C19.337 3.75 18.7011 4.01339 18.2322 4.48223C17.7634 4.95108 17.5 5.58696 17.5 6.25V10.625H15C14.8342 10.625 14.6753 10.6908 14.5581 10.8081C14.4408 10.9253 14.375 11.0842 14.375 11.25C14.375 11.4158 14.4408 11.5747 14.5581 11.6919C14.6753 11.8092 14.8342 11.875 15 11.875H18.125C18.2908 11.875 18.4497 11.8092 18.5669 11.6919C18.6842 11.5747 18.75 11.4158 18.75 11.25V6.25C18.75 5.91848 18.8817 5.60054 19.1161 5.36612C19.3505 5.1317 19.6685 5 20 5C20.3315 5 20.6495 5.1317 20.8839 5.36612C21.1183 5.60054 21.25 5.91848 21.25 6.25V14.375C21.25 14.5408 21.1842 14.6997 21.0669 14.8169C20.9497 14.9342 20.7908 15 20.625 15H14.375C14.2092 15 14.0503 15.0658 13.9331 15.1831C13.8158 15.3003 13.75 15.4592 13.75 15.625V20C13.75 20.3315 13.6183 20.6495 13.3839 20.8839C13.1495 21.1183 12.8315 21.25 12.5 21.25C12.1685 21.25 11.8505 21.1183 11.6161 20.8839C11.3817 20.6495 11.25 20.3315 11.25 20V15C11.25 14.8342 11.1842 14.6753 11.0669 14.5581C10.9497 14.4408 10.7908 14.375 10.625 14.375H6.875C6.70924 14.375 6.55027 14.4408 6.43306 14.5581C6.31585 14.6753 6.25 14.8342 6.25 15V20C6.25 20.3315 6.1183 20.6495 5.88388 20.8839C5.64946 21.1183 5.33152 21.25 5 21.25C4.66848 21.25 4.35054 21.1183 4.11612 20.8839C3.8817 20.6495 3.75 20.3315 3.75 20V6.25Z" fill="#212121"/>
</svg>
