<svg width="20" height="21" viewBox="0 0 20 21" fill="none" xmlns="https://www.w3.org/2000/svg">
<path d="M4.99178 4.60749C5.10883 4.72468 5.17457 4.88353 5.17457 5.04916C5.17457 5.21479 5.10883 5.37364 4.99178 5.49083C4.33401 6.14858 3.81224 6.92945 3.45625 7.78885C3.10027 8.64826 2.91705 9.56936 2.91705 10.4996C2.91705 11.4298 3.10027 12.3509 3.45625 13.2103C3.81224 14.0697 4.33401 14.8506 4.99178 15.5083C5.10558 15.6263 5.1685 15.7842 5.167 15.948C5.1655 16.1119 5.0997 16.2686 4.98376 16.3845C4.86782 16.5003 4.71104 16.5659 4.54716 16.5673C4.38329 16.5686 4.22544 16.5056 4.10762 16.3917C0.853451 13.1375 0.853451 7.86166 4.10762 4.60749C4.2248 4.49045 4.38366 4.42471 4.54928 4.42471C4.71491 4.42471 4.87376 4.49045 4.99095 4.60749H4.99178ZM15.8926 4.60749C19.1468 7.86166 19.1468 13.1375 15.8926 16.3925C15.7741 16.5029 15.6174 16.563 15.4555 16.5601C15.2936 16.5573 15.1391 16.4917 15.0246 16.3772C14.9101 16.2627 14.8445 16.1082 14.8416 15.9463C14.8388 15.7843 14.8989 15.6276 15.0093 15.5092C15.6672 14.8514 16.1891 14.0705 16.5451 13.211C16.9012 12.3515 17.0844 11.4303 17.0844 10.5C17.0844 9.56968 16.9012 8.64848 16.5451 7.789C16.1891 6.92952 15.6672 6.14859 15.0093 5.49083C14.9479 5.43361 14.8986 5.36461 14.8645 5.28794C14.8303 5.21128 14.8119 5.12851 14.8105 5.0446C14.809 4.96068 14.8244 4.87732 14.8558 4.7995C14.8873 4.72167 14.9341 4.65098 14.9934 4.59163C15.0528 4.53228 15.1235 4.48549 15.2013 4.45406C15.2791 4.42262 15.3625 4.40719 15.4464 4.40867C15.5303 4.41015 15.6131 4.42852 15.6897 4.46268C15.7664 4.49684 15.8354 4.54609 15.8926 4.60749V4.60749ZM7.34845 6.96416C7.46549 7.08135 7.53123 7.2402 7.53123 7.40583C7.53123 7.57145 7.46549 7.73031 7.34845 7.84749C7.0001 8.19573 6.72377 8.60918 6.53524 9.06423C6.34671 9.51928 6.24967 10.007 6.24967 10.4996C6.24967 10.9921 6.34671 11.4799 6.53524 11.9349C6.72377 12.39 7.0001 12.8034 7.34845 13.1517C7.45885 13.2701 7.51895 13.4268 7.5161 13.5888C7.51324 13.7507 7.44765 13.9052 7.33314 14.0197C7.21862 14.1342 7.06414 14.1998 6.90222 14.2026C6.7403 14.2055 6.5836 14.1454 6.46512 14.035C5.52751 13.0973 5.00077 11.8256 5.00077 10.4996C5.00077 9.17355 5.52751 7.90183 6.46512 6.96416C6.5823 6.84712 6.74116 6.78138 6.90678 6.78138C7.07241 6.78138 7.23126 6.84712 7.34845 6.96416ZM13.536 6.96416C14.4736 7.90183 15.0003 9.17355 15.0003 10.4996C15.0003 11.8256 14.4736 13.0973 13.536 14.035C13.4783 14.0947 13.4094 14.1424 13.3331 14.1752C13.2569 14.2079 13.1749 14.2252 13.0919 14.226C13.0089 14.2267 12.9266 14.211 12.8498 14.1796C12.773 14.1482 12.7032 14.1018 12.6445 14.0432C12.5858 13.9845 12.5393 13.9147 12.5078 13.8379C12.4764 13.7612 12.4605 13.6789 12.4612 13.5959C12.4619 13.5129 12.4791 13.4309 12.5118 13.3546C12.5445 13.2783 12.5921 13.2093 12.6518 13.1517C13 12.8034 13.2762 12.39 13.4647 11.9351C13.6532 11.4801 13.7501 10.9925 13.7501 10.5C13.7501 10.0075 13.6532 9.51989 13.4647 9.06492C13.2762 8.60995 13 8.19655 12.6518 7.84833C12.5414 7.72985 12.4813 7.57314 12.4841 7.41122C12.487 7.24931 12.5526 7.09482 12.6671 6.98031C12.7816 6.8658 12.9361 6.8002 13.098 6.79735C13.2599 6.79449 13.4166 6.85459 13.5351 6.96499L13.536 6.96416ZM10.0001 9.24999C10.3316 9.24999 10.6496 9.38169 10.884 9.61611C11.1184 9.85053 11.2501 10.1685 11.2501 10.5C11.2501 10.8315 11.1184 11.1495 10.884 11.3839C10.6496 11.6183 10.3316 11.75 10.0001 11.75C9.6686 11.75 9.35065 11.6183 9.11623 11.3839C8.88181 11.1495 8.75012 10.8315 8.75012 10.5C8.75012 10.1685 8.88181 9.85053 9.11623 9.61611C9.35065 9.38169 9.6686 9.24999 10.0001 9.24999Z" fill="white"/>
</svg>
