<svg width="18" height="18" viewBox="0 0 18 18" fill="none" xmlns="https://www.w3.org/2000/svg">
<path d="M4.6875 1.5C4.23995 1.5 3.81073 1.67779 3.49426 1.99426C3.17779 2.31072 3 2.73995 3 3.1875V14.8125C3 15.2601 3.17779 15.6893 3.49426 16.0057C3.81073 16.3222 4.23995 16.5 4.6875 16.5H10.3125C10.7573 16.5 11.1842 16.3244 11.5002 16.0113C11.8162 15.6983 11.9958 15.2731 12 14.8282V13.6882C12 13.5391 11.9407 13.396 11.8352 13.2905C11.7298 13.185 11.5867 13.1257 11.4375 13.1257C11.0977 13.1257 10.8833 13.0335 10.7355 12.9142C10.5795 12.789 10.4505 12.5955 10.3523 12.3225C10.1475 11.7563 10.1258 11.01 10.1258 10.3125C10.1257 10.1699 10.0716 10.0327 9.97425 9.9285L9.8505 9.79575C9.81017 9.75042 9.76762 9.70712 9.723 9.666C9.6675 9.6135 9.498 9.45225 8.83575 8.79C8.484 8.43825 8.28975 8.14125 8.226 7.914C8.20022 7.83529 8.19608 7.75111 8.214 7.67025C8.24223 7.577 8.29539 7.49324 8.36775 7.428C8.4328 7.35594 8.51631 7.30303 8.60925 7.275C8.68985 7.25707 8.7738 7.26121 8.85225 7.287C9.07875 7.35075 9.37575 7.5465 9.7275 7.89825C10.1325 8.30325 10.5173 8.68275 10.8615 9.02325C11.4315 9.58725 11.8912 10.0433 12.1515 10.3207C12.2535 10.4289 12.3941 10.4924 12.5427 10.4972C12.6913 10.502 12.8358 10.4477 12.9445 10.3463C13.0532 10.2449 13.1174 10.1046 13.123 9.95606C13.1285 9.8075 13.0751 9.66276 12.9742 9.5535C12.655 9.21961 12.3302 8.89106 12 8.568V6.045L14.1307 8.1765C14.4472 8.493 14.6257 8.922 14.6257 9.369V15.9375C14.6257 16.0867 14.685 16.2298 14.7905 16.3352C14.896 16.4407 15.0391 16.5 15.1882 16.5C15.3374 16.5 15.4805 16.4407 15.586 16.3352C15.6915 16.2298 15.7507 16.0867 15.7507 15.9375V9.36975C15.7507 9.00033 15.6779 8.63453 15.5365 8.29326C15.3951 7.95198 15.1878 7.64191 14.9265 7.38075L12 4.45425V3.18675C11.9998 2.73933 11.8219 2.3103 11.5055 1.99399C11.189 1.67769 10.7599 1.5 10.3125 1.5H4.6875ZM9.294 12.705C9.36675 12.906 9.4605 13.1055 9.582 13.2915C9.2954 13.4291 9.05351 13.6449 8.8842 13.914C8.71489 14.1831 8.62504 14.4946 8.625 14.8125V15.375H6.375V14.8125C6.375 14.3649 6.19721 13.9357 5.88074 13.6193C5.56428 13.3028 5.13505 13.125 4.6875 13.125H4.125V4.875H4.6875C5.13505 4.875 5.56428 4.69721 5.88074 4.38074C6.19721 4.06428 6.375 3.63505 6.375 3.1875V2.625H8.625V3.1875C8.625 3.63505 8.80279 4.06428 9.11926 4.38074C9.43573 4.69721 9.86495 4.875 10.3125 4.875H10.875V7.4535L10.5233 7.1025C10.125 6.70425 9.66225 6.3465 9.1575 6.204C8.88808 6.12421 8.60225 6.11774 8.3295 6.18525C8.16054 6.22916 8.00026 6.30143 7.8555 6.399C7.43147 6.34116 6.99972 6.38787 6.59788 6.53507C6.19603 6.68226 5.83626 6.92548 5.54991 7.24352C5.26356 7.56157 5.05932 7.9448 4.95496 8.35984C4.85061 8.77489 4.84932 9.20915 4.95119 9.6248C5.05307 10.0405 5.25503 10.4249 5.53948 10.7447C5.82392 11.0644 6.18223 11.3098 6.5832 11.4593C6.98416 11.6089 7.41562 11.6582 7.83999 11.6029C8.26436 11.5476 8.66877 11.3894 9.018 11.142C9.04575 11.655 9.1155 12.2123 9.294 12.705ZM6 9C5.99993 8.67326 6.10656 8.35543 6.30366 8.09483C6.50077 7.83423 6.77758 7.64512 7.092 7.55625C7.06308 7.77815 7.08044 8.00364 7.143 8.2185C7.28475 8.72325 7.64175 9.18675 8.04075 9.58575L8.5395 10.0822C8.32739 10.2861 8.05999 10.4232 7.7706 10.4762C7.4812 10.5293 7.18259 10.4961 6.91193 10.3808C6.64126 10.2654 6.41049 10.073 6.24835 9.8275C6.0862 9.58199 5.99983 9.29422 6 9ZM4.125 3.1875C4.125 3.03832 4.18426 2.89524 4.28975 2.78975C4.39524 2.68426 4.53832 2.625 4.6875 2.625H5.25V3.1875C5.25 3.33668 5.19074 3.47976 5.08525 3.58525C4.97976 3.69074 4.83668 3.75 4.6875 3.75H4.125V3.1875ZM9.75 2.625H10.3125C10.4617 2.625 10.6048 2.68426 10.7102 2.78975C10.8157 2.89524 10.875 3.03832 10.875 3.1875V3.75H10.3125C10.1633 3.75 10.0202 3.69074 9.91475 3.58525C9.80926 3.47976 9.75 3.33668 9.75 3.1875V2.625ZM10.875 14.25V14.8125C10.875 14.9617 10.8157 15.1048 10.7102 15.2102C10.6048 15.3157 10.4617 15.375 10.3125 15.375H9.75V14.8125C9.75 14.6633 9.80926 14.5202 9.91475 14.4148C10.0202 14.3093 10.1633 14.25 10.3125 14.25H10.875ZM5.25 15.375H4.6875C4.53832 15.375 4.39524 15.3157 4.28975 15.2102C4.18426 15.1048 4.125 14.9617 4.125 14.8125V14.25H4.6875C4.83668 14.25 4.97976 14.3093 5.08525 14.4148C5.19074 14.5202 5.25 14.6633 5.25 14.8125V15.375Z" fill="#182EA6"/>
</svg>
