<svg width="18" height="18" viewBox="0 0 18 18" fill="none" xmlns="https://www.w3.org/2000/svg">
<g clip-path="url(#clip0_1708_17675)">
<path d="M6 6.75C6.39782 6.75 6.77936 6.90804 7.06066 7.18934C7.34196 7.47064 7.5 7.85218 7.5 8.25C7.5 8.64782 7.34196 9.02936 7.06066 9.31066C6.77936 9.59196 6.39782 9.75 6 9.75C5.60218 9.75 5.22064 9.59196 4.93934 9.31066C4.65804 9.02936 4.5 8.64782 4.5 8.25C4.5 7.85218 4.65804 7.47064 4.93934 7.18934C5.22064 6.90804 5.60218 6.75 6 6.75ZM9 12.75H3V12C3 11.0025 5.0025 10.5 6 10.5C6.9975 10.5 9 11.0025 9 12V12.75ZM15 6.75C15 6.33579 14.6642 6 14.25 6H11.25C10.8358 6 10.5 6.33579 10.5 6.75C10.5 7.16421 10.8358 7.5 11.25 7.5H14.25C14.6642 7.5 15 7.16421 15 6.75ZM15 9.75C15 9.33579 14.6642 9 14.25 9H11.25C10.8358 9 10.5 9.33579 10.5 9.75C10.5 10.1642 10.8358 10.5 11.25 10.5H14.25C14.6642 10.5 15 10.1642 15 9.75ZM15 12.75C15 12.3358 14.6642 12 14.25 12H11.25C10.8358 12 10.5 12.3358 10.5 12.75C10.5 13.1642 10.8358 13.5 11.25 13.5H14.25C14.6642 13.5 15 13.1642 15 12.75ZM16.5 3H10.5V4.5H16.5V15H1.5V4.5H7.5V3H1.5C1.10218 3 0.720644 3.15804 0.43934 3.43934C0.158035 3.72064 0 4.10218 0 4.5L0 15C0 15.3978 0.158035 15.7794 0.43934 16.0607C0.720644 16.342 1.10218 16.5 1.5 16.5H16.5C16.8978 16.5 17.2794 16.342 17.5607 16.0607C17.842 15.7794 18 15.3978 18 15V4.5C18 4.10218 17.842 3.72064 17.5607 3.43934C17.2794 3.15804 16.8978 3 16.5 3ZM9.75 3.75C9.75 4.16421 9.41421 4.5 9 4.5C8.58579 4.5 8.25 4.16421 8.25 3.75V2.25C8.25 1.83579 8.58579 1.5 9 1.5C9.41421 1.5 9.75 1.83579 9.75 2.25V3.75Z" fill="#182EA6"/>
</g>
<defs>
<clipPath id="clip0_1708_17675">
<rect width="18" height="18" fill="white"/>
</clipPath>
</defs>
</svg>
