<svg width="18" height="18" viewBox="0 0 18 18" fill="none" xmlns="http://www.w3.org/2000/svg">
<path d="M9 1.6875C7.55373 1.6875 6.13993 2.11637 4.9374 2.91988C3.73486 3.72339 2.7976 4.86544 2.24413 6.20163C1.69067 7.53781 1.54586 9.00811 1.82801 10.4266C2.11017 11.8451 2.80661 13.148 3.82928 14.1707C4.85196 15.1934 6.15492 15.8898 7.57341 16.172C8.99189 16.4541 10.4622 16.3093 11.7984 15.7559C13.1346 15.2024 14.2766 14.2651 15.0801 13.0626C15.8836 11.8601 16.3125 10.4463 16.3125 9C16.3105 7.06123 15.5394 5.20246 14.1685 3.83154C12.7975 2.46063 10.9388 1.68955 9 1.6875ZM9 12.375C8.33249 12.375 7.67997 12.1771 7.12495 11.8062C6.56994 11.4354 6.13736 10.9083 5.88191 10.2916C5.62646 9.67486 5.55963 8.99626 5.68985 8.34157C5.82008 7.68688 6.14152 7.08552 6.61352 6.61351C7.08552 6.14151 7.68689 5.82008 8.34157 5.68985C8.99626 5.55962 9.67486 5.62646 10.2916 5.88191C10.9083 6.13735 11.4354 6.56993 11.8062 7.12495C12.1771 7.67997 12.375 8.33249 12.375 9C12.3741 9.89482 12.0182 10.7527 11.3855 11.3855C10.7527 12.0182 9.89482 12.3741 9 12.375ZM11.757 5.44711C11.1212 4.9502 10.363 4.63437 9.5625 4.53305V2.83852C10.8108 2.95096 11.9951 3.44155 12.9572 4.24477L11.757 5.44711ZM8.4375 4.53656C7.637 4.63789 6.87878 4.95371 6.24305 5.45062L5.04282 4.24688C6.00495 3.44366 7.18922 2.95307 8.4375 2.84063V4.53656ZM5.44711 6.24305C4.9502 6.87877 4.63438 7.637 4.53305 8.4375H2.83852C2.95097 7.18922 3.44155 6.00494 4.24477 5.04281L5.44711 6.24305ZM4.53657 9.5625C4.63789 10.363 4.95372 11.1212 5.45063 11.757L4.24688 12.9572C3.44366 11.9951 2.95308 10.8108 2.84063 9.5625H4.53657ZM6.24305 12.5529C6.87916 13.0485 7.63735 13.3631 8.4375 13.4634V15.1615C7.18922 15.049 6.00495 14.5585 5.04282 13.7552L6.24305 12.5529ZM9.5625 13.4634C10.3627 13.3631 11.1208 13.0485 11.757 12.5529L12.9572 13.7531C11.9951 14.5563 10.8108 15.0469 9.5625 15.1594V13.4634ZM12.5529 11.757C13.0485 11.1208 13.3631 10.3627 13.4634 9.5625H15.1615C15.049 10.8108 14.5585 11.9951 13.7552 12.9572L12.5529 11.757ZM13.4634 8.4375C13.3631 7.63735 13.0485 6.87915 12.5529 6.24305L13.7531 5.04281C14.5563 6.00494 15.0469 7.18922 15.1594 8.4375H13.4634Z" fill="#182EA6"/>
</svg>
