<svg width="18" height="18" viewBox="0 0 18 18" fill="none" xmlns="https://www.w3.org/2000/svg">
<g clip-path="url(#clip0_1708_17705)">
<path d="M10.9283 0.642578H1.92829C1.5873 0.642578 1.26027 0.778037 1.01916 1.01916C0.778037 1.26027 0.642578 1.5873 0.642578 1.92829V16.0712C0.642578 16.4121 0.778037 16.7392 1.01916 16.9803C1.26027 17.2214 1.5873 17.3569 1.92829 17.3569H16.0712C16.4121 17.3569 16.7392 17.2214 16.9803 16.9803C17.2214 16.7392 17.3569 16.4121 17.3569 16.0712V7.07115L10.9283 0.642578Z" stroke="#182EA6" stroke-width="1.3" stroke-linecap="round" stroke-linejoin="round"/>
<path d="M5.78599 5.78544V3.85686M5.78599 5.78544C4.71885 5.78544 3.85742 5.78544 3.85742 7.07115C3.85742 8.99972 7.71456 8.99972 7.71456 10.9283C7.71456 12.214 6.85314 12.214 5.78599 12.214M5.78599 5.78544C6.85314 5.78544 7.71456 6.27401 7.71456 7.07115M3.85742 10.9283C3.85742 11.8926 4.71885 12.214 5.78599 12.214M5.78599 12.214V14.1426M10.9289 12.214H14.786M10.9289 6.42829V0.642578L17.3574 7.07115H11.5717C11.4012 7.07115 11.2377 7.00342 11.1171 6.88286C10.9966 6.7623 10.9289 6.59879 10.9289 6.42829Z" stroke="#182EA6" stroke-width="1.3" stroke-linecap="round" stroke-linejoin="round"/>
</g>
<defs>
<clipPath id="clip0_1708_17705">
<rect width="18" height="18" fill="white"/>
</clipPath>
</defs>
</svg>
