<svg width="18" height="18" viewBox="0 0 18 18" fill="none" xmlns="https://www.w3.org/2000/svg">
<path d="M12.6004 2.4748C12.6004 2.29578 12.6715 2.12409 12.7981 1.99751C12.9247 1.87092 13.0964 1.7998 13.2754 1.7998H15.5254C15.7045 1.7998 15.8761 1.87092 16.0027 1.99751C16.1293 2.12409 16.2004 2.29578 16.2004 2.4748V4.7248C16.2004 4.90383 16.1293 5.07552 16.0027 5.2021C15.8761 5.32869 15.7045 5.3998 15.5254 5.3998C15.3464 5.3998 15.1747 5.32869 15.0481 5.2021C14.9215 5.07552 14.8504 4.90383 14.8504 4.7248V4.1038L10.8274 8.1268C10.7009 8.25321 10.5293 8.32421 10.3504 8.32421C10.1716 8.32421 9.99999 8.25321 9.87343 8.1268L7.65043 5.9038L3.85243 9.7018C3.79064 9.76812 3.71611 9.82131 3.63332 9.85821C3.55052 9.8951 3.46113 9.91494 3.3705 9.91654C3.27987 9.91814 3.18984 9.90146 3.10579 9.86752C3.02174 9.83357 2.94539 9.78304 2.8813 9.71894C2.8172 9.65484 2.76667 9.57849 2.73272 9.49444C2.69877 9.41039 2.6821 9.32037 2.6837 9.22973C2.6853 9.1391 2.70514 9.04972 2.74203 8.96692C2.77892 8.88412 2.83211 8.8096 2.89843 8.74781L7.17343 4.4728C7.29999 4.3464 7.47156 4.2754 7.65043 4.2754C7.82931 4.2754 8.00087 4.3464 8.12743 4.4728L10.3504 6.69581L13.8964 3.1498H13.2754C13.0964 3.1498 12.9247 3.07869 12.7981 2.9521C12.6715 2.82551 12.6004 2.65383 12.6004 2.4748ZM3.37543 12.5998C3.55445 12.5998 3.72614 12.6709 3.85273 12.7975C3.97932 12.9241 4.05043 13.0958 4.05043 13.2748V15.5248C4.05043 15.7038 3.97932 15.8755 3.85273 16.0021C3.72614 16.1287 3.55445 16.1998 3.37543 16.1998C3.19641 16.1998 3.02472 16.1287 2.89813 16.0021C2.77155 15.8755 2.70043 15.7038 2.70043 15.5248V13.2748C2.70043 13.0958 2.77155 12.9241 2.89813 12.7975C3.02472 12.6709 3.19641 12.5998 3.37543 12.5998ZM7.65043 10.5748C7.65043 10.3958 7.57932 10.2241 7.45273 10.0975C7.32614 9.97092 7.15445 9.89981 6.97543 9.89981C6.79641 9.89981 6.62472 9.97092 6.49813 10.0975C6.37155 10.2241 6.30043 10.3958 6.30043 10.5748V15.5248C6.30043 15.7038 6.37155 15.8755 6.49813 16.0021C6.62472 16.1287 6.79641 16.1998 6.97543 16.1998C7.15445 16.1998 7.32614 16.1287 7.45273 16.0021C7.57932 15.8755 7.65043 15.7038 7.65043 15.5248V10.5748ZM10.5754 11.6998C10.7545 11.6998 10.9261 11.7709 11.0527 11.8975C11.1793 12.0241 11.2504 12.1958 11.2504 12.3748V15.5248C11.2504 15.7038 11.1793 15.8755 11.0527 16.0021C10.9261 16.1287 10.7545 16.1998 10.5754 16.1998C10.3964 16.1998 10.2247 16.1287 10.0981 16.0021C9.97155 15.8755 9.90043 15.7038 9.90043 15.5248V12.3748C9.90043 12.1958 9.97155 12.0241 10.0981 11.8975C10.2247 11.7709 10.3964 11.6998 10.5754 11.6998ZM14.8504 8.77481C14.8504 8.59578 14.7793 8.4241 14.6527 8.29751C14.5261 8.17092 14.3545 8.0998 14.1754 8.0998C13.9964 8.0998 13.8247 8.17092 13.6981 8.29751C13.5715 8.4241 13.5004 8.59578 13.5004 8.77481V15.5248C13.5004 15.7038 13.5715 15.8755 13.6981 16.0021C13.8247 16.1287 13.9964 16.1998 14.1754 16.1998C14.3545 16.1998 14.5261 16.1287 14.6527 16.0021C14.7793 15.8755 14.8504 15.7038 14.8504 15.5248V8.77481Z" fill="#182EA6"/>
</svg>
