<svg width="18" height="18" viewBox="0 0 18 18" fill="none" xmlns="http://www.w3.org/2000/svg">
<path fill-rule="evenodd" clip-rule="evenodd" d="M15.7555 8.125H13.735C12.667 8.125 11.8742 8.91925 11.8742 9.8125C11.8742 10.7057 12.667 11.5 13.7343 11.5H15.7728C15.9273 11.4903 15.994 11.386 15.9993 11.323V8.302C15.994 8.239 15.9273 8.13475 15.7728 8.12575H15.7548L15.7555 8.125ZM15.7 7C15.7495 7 15.7975 7 15.8425 7.003C16.495 7.04275 17.0733 7.5355 17.122 8.224C17.125 8.269 17.125 8.31775 17.125 8.36275V11.2622C17.125 11.3072 17.125 11.356 17.122 11.401C17.0733 12.0895 16.495 12.5822 15.8417 12.6227C15.7975 12.625 15.7495 12.625 15.6993 12.625H13.7358C12.127 12.625 10.75 11.404 10.75 9.8125C10.75 8.221 12.127 7 13.735 7H15.7Z" fill="#182EA6"/>
<path d="M14.3125 9.8125C14.3125 10.0114 14.2335 10.2022 14.0928 10.3428C13.9522 10.4835 13.7614 10.5625 13.5625 10.5625C13.3636 10.5625 13.1728 10.4835 13.0322 10.3428C12.8915 10.2022 12.8125 10.0114 12.8125 9.8125C12.8125 9.61359 12.8915 9.42282 13.0322 9.28217C13.1728 9.14152 13.3636 9.0625 13.5625 9.0625C13.7614 9.0625 13.9522 9.14152 14.0928 9.28217C14.2335 9.42282 14.3125 9.61359 14.3125 9.8125Z" fill="#182EA6"/>
<path fill-rule="evenodd" clip-rule="evenodd" d="M15.7 7.00009C15.9152 6.99196 16.1293 7.033 16.3263 7.12009C16.246 5.91559 16.0247 4.98709 15.3317 4.29334C14.77 3.73234 14.0583 3.48334 13.1793 3.36484L13.1478 3.36109C13.1399 3.35514 13.1319 3.34939 13.1238 3.34384L10.3217 1.48609C9.83572 1.1689 9.26788 1 8.6875 1C8.10712 1 7.53928 1.1689 7.05325 1.48609L4.252 3.34384C4.2436 3.34937 4.23535 3.35513 4.22725 3.36109L4.19575 3.36484C3.31675 3.48334 2.605 3.73234 2.04325 4.29334C1.48225 4.85509 1.23325 5.56684 1.11475 6.44584C1 7.30084 1 8.39209 1 9.77059V9.85459C1 11.2331 1 12.3251 1.11475 13.1793C1.23325 14.0583 1.48225 14.7701 2.04325 15.3318C2.605 15.8928 3.31675 16.1418 4.19575 16.2603C5.05075 16.3751 6.142 16.3751 7.5205 16.3751H9.8545C11.233 16.3751 12.325 16.3751 13.1793 16.2603C14.0583 16.1418 14.77 15.8928 15.3317 15.3318C16.0247 14.6381 16.246 13.7096 16.3263 12.5043C16.1747 12.5718 16.0112 12.6123 15.8417 12.6228C15.7975 12.6251 15.7495 12.6251 15.6993 12.6251H15.1885C15.103 13.6308 14.9103 14.1626 14.536 14.5361C14.2188 14.8533 13.7837 15.0438 13.0292 15.1451C12.259 15.2486 11.2428 15.2501 9.8125 15.2501H7.5625C6.13225 15.2501 5.11675 15.2486 4.345 15.1451C3.59125 15.0438 3.15625 14.8533 2.839 14.5361C2.52175 14.2188 2.33125 13.7838 2.23 13.0293C2.1265 12.2591 2.125 11.2428 2.125 9.81259C2.125 8.38234 2.1265 7.36684 2.23 6.59509C2.33125 5.84134 2.52175 5.40634 2.839 5.08909C3.15625 4.77184 3.59125 4.58134 4.34575 4.48009C5.11675 4.37659 6.13225 4.37509 7.5625 4.37509H9.8125C11.2428 4.37509 12.259 4.37659 13.03 4.48009C13.7838 4.58134 14.2188 4.77184 14.536 5.08909C14.9103 5.46259 15.103 5.99434 15.1885 7.00009H15.7ZM7.5205 3.25009H9.8545C10.2422 3.25009 10.6067 3.25009 10.9495 3.25234L9.7 2.42359C9.1 2.02609 8.275 2.02609 7.675 2.42359L6.42475 3.25234C6.76825 3.25009 7.13275 3.25009 7.51975 3.25009H7.5205Z" fill="#182EA6"/>
<path d="M4.5625 6.25C4.41332 6.25 4.27024 6.30926 4.16475 6.41475C4.05926 6.52024 4 6.66332 4 6.8125C4 6.96168 4.05926 7.10476 4.16475 7.21025C4.27024 7.31574 4.41332 7.375 4.5625 7.375H7.5625C7.71168 7.375 7.85476 7.31574 7.96025 7.21025C8.06574 7.10476 8.125 6.96168 8.125 6.8125C8.125 6.66332 8.06574 6.52024 7.96025 6.41475C7.85476 6.30926 7.71168 6.25 7.5625 6.25H4.5625Z" fill="#182EA6"/>
<path d="M14.3125 9.8125C14.3125 10.0114 14.2335 10.2022 14.0928 10.3428C13.9522 10.4835 13.7614 10.5625 13.5625 10.5625C13.3636 10.5625 13.1728 10.4835 13.0322 10.3428C12.8915 10.2022 12.8125 10.0114 12.8125 9.8125C12.8125 9.61359 12.8915 9.42282 13.0322 9.28217C13.1728 9.14152 13.3636 9.0625 13.5625 9.0625C13.7614 9.0625 13.9522 9.14152 14.0928 9.28217C14.2335 9.42282 14.3125 9.61359 14.3125 9.8125Z" fill="#182EA6"/>
</svg>
