<svg width="12" height="16" viewBox="0 0 12 16" fill="none" xmlns="http://www.w3.org/2000/svg">
<path d="M3.75 2.75H2.25C1.85218 2.75 1.47064 2.90804 1.18934 3.18934C0.908035 3.47064 0.75 3.85218 0.75 4.25V13.25C0.75 13.6478 0.908035 14.0294 1.18934 14.3107C1.47064 14.592 1.85218 14.75 2.25 14.75H9.75C10.1478 14.75 10.5294 14.592 10.8107 14.3107C11.092 14.0294 11.25 13.6478 11.25 13.25V4.25C11.25 3.85218 11.092 3.47064 10.8107 3.18934C10.5294 2.90804 10.1478 2.75 9.75 2.75H8.25" stroke="#182EA6" stroke-width="1.5" stroke-linecap="round" stroke-linejoin="round"/>
<path d="M3.75 11.75V8M6 11.75V11M8.25 11.75V9.5M3.75 2.75C3.75 2.35218 3.90804 1.97064 4.18934 1.68934C4.47064 1.40804 4.85218 1.25 5.25 1.25H6.75C7.14782 1.25 7.52936 1.40804 7.81066 1.68934C8.09196 1.97064 8.25 2.35218 8.25 2.75C8.25 3.14782 8.09196 3.52936 7.81066 3.81066C7.52936 4.09196 7.14782 4.25 6.75 4.25H5.25C4.85218 4.25 4.47064 4.09196 4.18934 3.81066C3.90804 3.52936 3.75 3.14782 3.75 2.75Z" stroke="#182EA6" stroke-width="1.5" stroke-linecap="round" stroke-linejoin="round"/>
</svg>
