<svg width="24" height="25" viewBox="0 0 24 25" fill="none" xmlns="https://www.w3.org/2000/svg">
<path d="M20 16C18.8 16 17.5 15.8 16.4 15.4H16.1C15.8 15.4 15.6 15.5 15.4 15.7L13.2 17.9C10.4 16.4 8 14.1 6.6 11.3L8.8 9.1C9.1 8.8 9.2 8.4 9 8.1C8.7 7 8.5 5.7 8.5 4.5C8.5 4 8 3.5 7.5 3.5H4C3.5 3.5 3 4 3 4.5C3 13.9 10.6 21.5 20 21.5C20.5 21.5 21 21 21 20.5V17C21 16.5 20.5 16 20 16ZM5 5.5H6.5C6.6 6.4 6.8 7.3 7 8.1L5.8 9.3C5.4 8.1 5.1 6.8 5 5.5ZM19 19.5C17.7 19.4 16.4 19.1 15.2 18.7L16.4 17.5C17.2 17.7 18.1 17.9 19 17.9V19.5Z" fill="#182EA6"/>
</svg>
