<svg width="24" height="25" viewBox="0 0 24 25" fill="none" xmlns="https://www.w3.org/2000/svg">
<path d="M23.2342 11.45H21.4942V20.975H2.50419V5.42H11.9992V3.5H2.50419C2.26183 3.5076 2.02345 3.56369 1.80313 3.66495C1.58281 3.76621 1.38502 3.91059 1.22142 4.08956C1.05783 4.26854 0.931756 4.47848 0.850647 4.70699C0.769538 4.93549 0.735039 5.17794 0.749186 5.42V20.975C0.741175 21.2134 0.780228 21.451 0.864113 21.6743C0.947997 21.8976 1.07507 22.1021 1.23806 22.2763C1.40105 22.4504 1.59677 22.5907 1.81402 22.6891C2.03127 22.7876 2.2658 22.8422 2.50419 22.85H21.4942C21.7326 22.8422 21.9671 22.7876 22.1844 22.6891C22.4016 22.5907 22.5973 22.4504 22.7603 22.2763C22.9233 22.1021 23.0504 21.8976 23.1343 21.6743C23.2181 21.451 23.2572 21.2134 23.2492 20.975L23.2342 11.45Z" fill="#182EA6"/>
<path d="M15.8402 4.80503L9.33024 11.33L8.67024 11.99L8.55024 12.11L6.27024 16.85C6.11726 17.1543 6.0641 17.4991 6.1183 17.8354C6.1725 18.1717 6.3313 18.4823 6.57214 18.7231C6.81299 18.964 7.12361 19.1228 7.45987 19.177C7.79613 19.2312 8.14092 19.178 8.44524 19.025L13.1552 16.73L13.9502 15.935L14.5952 15.29L21.1052 8.75003L21.7802 8.09003L22.1552 7.71503C22.7671 7.10197 23.1108 6.27119 23.1108 5.40503C23.1108 4.53887 22.7671 3.70809 22.1552 3.09503C21.5451 2.48929 20.72 2.14956 19.8602 2.15003C18.9959 2.14886 18.1659 2.48839 17.5502 3.09503L16.5002 4.13003L15.8252 4.79003L15.8402 4.80503ZM8.26524 17L10.0352 13.355L11.9102 15.245L8.26524 17ZM11.2652 11.96L17.1152 6.09503L19.0652 8.06003L13.2752 14L11.2652 11.96ZM19.7852 3.99503C19.9665 3.99441 20.1461 4.02991 20.3135 4.09945C20.4809 4.16898 20.6328 4.27116 20.7602 4.40003C21.0195 4.66132 21.1649 5.01446 21.1649 5.38253C21.1649 5.75059 21.0195 6.10374 20.7602 6.36503L20.3852 6.72503L18.4352 4.77503L18.8102 4.40003C18.9456 4.26672 19.1082 4.1642 19.2868 4.09948C19.4654 4.03477 19.6559 4.00937 19.8452 4.02503L19.7852 3.99503Z" fill="#182EA6"/>
</svg>
