<svg width="29" height="28" viewBox="0 0 29 28" fill="none" xmlns="https://www.w3.org/2000/svg">
<path d="M12.3839 1.13581C13.0439 -0.201521 14.9519 -0.201521 15.6119 1.13581L18.7559 7.50648L25.7865 8.52781C27.2625 8.74115 27.8519 10.5571 26.7839 11.5985L25.5772 12.7745C24.9405 12.416 24.2609 12.1401 23.5545 11.9531L25.0972 10.4491L18.3639 9.47048C18.0751 9.42835 17.8009 9.31665 17.5649 9.145C17.3289 8.97335 17.1382 8.74689 17.0092 8.48515L13.9972 2.38648L10.9865 8.48515C10.8575 8.74689 10.6668 8.97335 10.4308 9.145C10.1948 9.31665 9.92064 9.42835 9.63188 9.47048L2.89855 10.4491L7.77055 15.1985C8.19455 15.6118 8.38788 16.2078 8.28788 16.7918L7.13855 23.4971L12.6705 20.5891C12.6905 21.3118 12.8012 22.0118 12.9879 22.6811L7.71055 25.4558C6.39055 26.1491 4.84655 25.0291 5.09721 23.5585L6.29855 16.5571L1.21188 11.5971C0.143879 10.5571 0.733212 8.74248 2.20921 8.52781L9.23988 7.50648L12.3839 1.13581ZM28.6665 20.3331C28.6665 18.3882 27.8939 16.523 26.5187 15.1477C25.1434 13.7724 23.2781 12.9998 21.3332 12.9998C19.3883 12.9998 17.523 13.7724 16.1478 15.1477C14.7725 16.523 13.9999 18.3882 13.9999 20.3331C13.9999 22.2781 14.7725 24.1433 16.1478 25.5186C17.523 26.8939 19.3883 27.6665 21.3332 27.6665C23.2781 27.6665 25.1434 26.8939 26.5187 25.5186C27.8939 24.1433 28.6665 22.2781 28.6665 20.3331ZM21.9999 20.9998L22.0012 24.3371C22.0012 24.514 21.931 24.6835 21.8059 24.8086C21.6809 24.9336 21.5114 25.0038 21.3345 25.0038C21.1577 25.0038 20.9882 24.9336 20.8631 24.8086C20.7381 24.6835 20.6679 24.514 20.6679 24.3371V20.9998H17.3279C17.1511 20.9998 16.9815 20.9296 16.8565 20.8046C16.7314 20.6795 16.6612 20.51 16.6612 20.3331C16.6612 20.1563 16.7314 19.9868 16.8565 19.8617C16.9815 19.7367 17.1511 19.6665 17.3279 19.6665H20.6665V16.3318C20.6665 16.155 20.7368 15.9854 20.8618 15.8604C20.9868 15.7354 21.1564 15.6651 21.3332 15.6651C21.51 15.6651 21.6796 15.7354 21.8046 15.8604C21.9296 15.9854 21.9999 16.155 21.9999 16.3318V19.6651H25.3292C25.506 19.6651 25.6756 19.7354 25.8006 19.8604C25.9256 19.9854 25.9959 20.155 25.9959 20.3318C25.9959 20.5086 25.9256 20.6782 25.8006 20.8032C25.6756 20.9282 25.506 20.9985 25.3292 20.9985L21.9999 20.9998Z" fill="#182EA6"/>
</svg>
