<svg width="29" height="28" viewBox="0 0 29 28" fill="none" xmlns="http://www.w3.org/2000/svg">
<path d="M12.3834 1.13606C13.0434 -0.201277 14.9514 -0.201277 15.6114 1.13606L18.7554 7.50672L25.7861 8.52806C27.2621 8.74139 27.8514 10.5574 26.7834 11.5987L25.5754 12.7761C24.0802 11.9352 22.3691 11.557 20.6588 11.6894C18.9485 11.8217 17.3159 12.4586 15.9678 13.5194C14.6198 14.5802 13.6168 16.0172 13.086 17.6484C12.5552 19.2797 12.5204 21.0317 12.9861 22.6827L7.71006 25.4561C6.39006 26.1494 4.84606 25.0294 5.09672 23.5587L6.29806 16.5574L1.21139 11.5974C0.143391 10.5574 0.732724 8.74272 2.20872 8.52806L9.23939 7.50672L12.3834 1.13606ZM28.6634 20.3334C28.6634 18.3885 27.8908 16.5232 26.5155 15.1479C25.1402 13.7727 23.275 13.0001 21.3301 13.0001C19.3851 13.0001 17.5199 13.7727 16.1446 15.1479C14.7693 16.5232 13.9967 18.3885 13.9967 20.3334C13.9967 22.2783 14.7693 24.1436 16.1446 25.5188C17.5199 26.8941 19.3851 27.6667 21.3301 27.6667C23.275 27.6667 25.1402 26.8941 26.5155 25.5188C27.8908 24.1436 28.6634 22.2783 28.6634 20.3334ZM21.9967 21.0001L21.9994 24.3374C21.9994 24.5142 21.9292 24.6838 21.8041 24.8088C21.6791 24.9338 21.5095 25.0041 21.3327 25.0041C21.1559 25.0041 20.9863 24.9338 20.8613 24.8088C20.7363 24.6838 20.6661 24.5142 20.6661 24.3374V21.0001H17.3261C17.1492 21.0001 16.9797 20.9298 16.8547 20.8048C16.7296 20.6798 16.6594 20.5102 16.6594 20.3334C16.6594 20.1566 16.7296 19.987 16.8547 19.862C16.9797 19.737 17.1492 19.6667 17.3261 19.6667H20.6661L20.6647 16.3321C20.6647 16.1552 20.735 15.9857 20.86 15.8607C20.985 15.7356 21.1546 15.6654 21.3314 15.6654C21.5082 15.6654 21.6778 15.7356 21.8028 15.8607C21.9278 15.9857 21.9981 16.1552 21.9981 16.3321V19.6654H25.3274C25.5042 19.6654 25.6738 19.7356 25.7988 19.8607C25.9238 19.9857 25.9941 20.1552 25.9941 20.3321C25.9941 20.5089 25.9238 20.6784 25.7988 20.8035C25.6738 20.9285 25.5042 20.9987 25.3274 20.9987H21.9994L21.9967 21.0001Z" fill="#182EA6"/>
</svg>
