<svg width="26" height="26" viewBox="0 0 26 26" fill="none" xmlns="https://www.w3.org/2000/svg">
<path d="M13 0C5.832 0 0 5.832 0 13C0 20.168 5.832 26 13 26C20.168 26 26 20.168 26 13C26 5.832 20.168 0 13 0ZM13 2C14.4713 2.00006 15.9275 2.29635 17.2818 2.8712C18.6362 3.44606 19.8609 4.28772 20.883 5.346C19.84 6.10115 18.9669 7.06658 18.32 8.18L20.04 9.19C20.5701 8.2837 21.2878 7.50122 22.145 6.895C23.3564 8.70036 24.0023 10.8258 24 13C24 15.257 23.315 17.357 22.145 19.105C21.2752 18.4876 20.5473 17.6915 20.01 16.77L18.28 17.77C18.937 18.9024 19.8237 19.8847 20.883 20.654C19.8609 21.7123 18.6362 22.5539 17.2818 23.1288C15.9275 23.7037 14.4713 23.9999 13 24C11.5287 23.9999 10.0725 23.7037 8.71817 23.1288C7.36384 22.5539 6.13911 21.7123 5.117 20.654C6.17668 19.8848 7.06369 18.9025 7.721 17.77L5.991 16.77C5.45343 17.6916 4.72518 18.4877 3.855 19.105C2.64356 17.2996 1.99773 15.1742 2 13C2 10.743 2.685 8.643 3.855 6.895C4.71248 7.50082 5.43053 8.28297 5.961 9.189L7.68 8.179C7.03302 7.06594 6.15991 6.10086 5.117 5.346C6.13911 4.28772 7.36384 3.44606 8.71817 2.8712C10.0725 2.29635 11.5287 2.00006 13 2ZM8.58 10.21L6.67 10.8C6.89 11.52 7 12.26 7 13C7 13.73 6.9 14.45 6.69 15.15L8.6 15.72C9.13913 13.9219 9.13217 12.0042 8.58 10.21ZM17.42 10.21C16.8678 12.0042 16.8609 13.9219 17.4 15.72L19.31 15.15C19.1 14.45 19 13.73 19 13C19 12.26 19.11 11.52 19.33 10.8L17.42 10.21Z" fill="white"/>
</svg>
