<svg width="26" height="26" viewBox="0 0 26 26" fill="none" xmlns="http://www.w3.org/2000/svg">
<path d="M13 0C10.4288 0 7.91543 0.762437 5.77759 2.1909C3.63975 3.61935 1.97351 5.64968 0.989572 8.02512C0.0056327 10.4006 -0.251811 13.0144 0.249797 15.5362C0.751405 18.0579 1.98953 20.3743 3.80762 22.1924C5.6257 24.0105 7.94208 25.2486 10.4638 25.7502C12.9856 26.2518 15.5995 25.9944 17.9749 25.0104C20.3503 24.0265 22.3807 22.3603 23.8091 20.2224C25.2376 18.0846 26 15.5712 26 13C25.9964 9.5533 24.6256 6.24882 22.1884 3.81163C19.7512 1.37445 16.4467 0.00363977 13 0ZM4.50001 6.02125C5.90351 7.72029 6.75904 9.80486 6.95376 12H2.04626C2.24358 9.80549 3.09881 7.72167 4.50001 6.02125ZM14 12V2.04625C16.2419 2.24929 18.3666 3.1384 20.085 4.5925C18.3079 6.67511 17.2404 9.26974 17.0375 12H14ZM12 12H8.96251C8.7596 9.26974 7.69215 6.67511 5.91501 4.5925C7.63336 3.1384 9.75815 2.24929 12 2.04625V12ZM6.95376 14C6.75904 16.1951 5.90351 18.2797 4.50001 19.9788C3.09881 18.2783 2.24358 16.1945 2.04626 14H6.95376ZM8.96251 14H12V23.9538C9.75815 23.7507 7.63336 22.8616 5.91501 21.4075C7.69193 19.3248 8.75935 16.7302 8.96251 14ZM14 14H17.0375C17.2407 16.7302 18.3081 19.3248 20.085 21.4075C18.3666 22.8616 16.2419 23.7507 14 23.9538V14ZM19.0463 14H23.9538C23.7564 16.1945 22.9012 18.2783 21.5 19.9788C20.0965 18.2797 19.241 16.1951 19.0463 14ZM19.0463 12C19.241 9.80486 20.0965 7.72029 21.5 6.02125C22.9012 7.72167 23.7564 9.80549 23.9538 12H19.0463Z" fill="white"/>
</svg>
