<svg width="28" height="28" viewBox="0 0 28 28" fill="none" xmlns="https://www.w3.org/2000/svg">
<path d="M23.4262 4.5729C20.9115 2.14413 17.5435 0.800203 14.0476 0.830582C10.5516 0.860961 7.20743 2.26321 4.73532 4.73532C2.26321 7.20743 0.860961 10.5516 0.830582 14.0476C0.800203 17.5435 2.14413 20.9115 4.5729 23.4262C7.0876 25.855 10.4556 27.1989 13.9516 27.1686C17.4475 27.1382 20.7917 25.7359 23.2638 23.2638C25.7359 20.7917 27.1382 17.4475 27.1686 13.9516C27.1989 10.4556 25.855 7.0876 23.4262 4.5729ZM6.4529 6.4529C7.95516 4.95003 9.87205 3.93009 11.9578 3.52387C14.0436 3.11765 16.2031 3.34365 18.1596 4.1729L17.7729 4.5729L18.7196 5.51957L19.4129 4.8129C19.7995 5.04616 20.1733 5.29985 20.5329 5.5729L5.5729 20.5329C5.29985 20.1733 5.04616 19.7995 4.8129 19.4129L5.51957 18.7196L4.5729 17.7729L4.18624 18.1596C3.35532 16.2044 3.12716 14.0456 3.531 11.9599C3.93483 9.87424 4.95226 7.95665 6.4529 6.4529ZM21.5462 21.5462C20.044 23.0491 18.1271 24.069 16.0413 24.4753C13.9556 24.8815 11.796 24.6555 9.83957 23.8262L10.2262 23.4262L9.27957 22.4796L8.58624 23.1862C8.19967 22.953 7.8258 22.6993 7.46624 22.4262L22.4262 7.46624C22.6993 7.8258 22.953 8.19967 23.1862 8.58624L22.4796 9.27957L23.4262 10.2262L23.8129 9.83957C24.6438 11.7948 24.872 13.9535 24.4681 16.0392C24.0643 18.1249 23.0469 20.0425 21.5462 21.5462ZM13.0529 18.7196L13.9996 19.6529L12.1196 21.5462L11.1729 20.6662L13.0529 18.7196ZM16.8262 14.9462L17.7729 15.8796L15.8796 17.7729L14.9462 16.8262L16.8262 14.9462ZM20.6662 11.1729L21.6129 12.1196L19.6529 13.9996L18.7196 13.0529L20.6662 11.1729ZM14.9462 9.27957L13.9996 8.34624L15.8796 6.4529L16.8262 7.39957L14.9462 9.27957ZM11.1729 13.0529L10.2262 12.1196L12.1196 10.2262L13.0529 11.1729L11.1729 13.0529ZM7.39957 16.8262L6.4529 15.8796L8.34624 13.9996L9.27957 14.9462L7.39957 16.8262Z" fill="white"/>
</svg>
