<svg width="26" height="26" viewBox="0 0 26 26" fill="none" xmlns="http://www.w3.org/2000/svg">
<path d="M13 0C16.4478 0 19.7544 1.36964 22.1924 3.80761C24.6304 6.24558 26 9.55219 26 13C26 16.4478 24.6304 19.7544 22.1924 22.1924C19.7544 24.6304 16.4478 26 13 26C9.55219 26 6.24558 24.6304 3.80761 22.1924C1.36964 19.7544 0 16.4478 0 13C0 9.55219 1.36964 6.24558 3.80761 3.80761C6.24558 1.36964 9.55219 0 13 0ZM10.672 2.246L13 3.8L15.328 2.248C13.7936 1.91713 12.2064 1.91713 10.672 2.248V2.246ZM8.286 3.058C6.82673 3.75245 5.53773 4.7588 4.51 6.006L5.804 10.214L7.816 10.884L12 7.704V5.536L8.286 3.058ZM3.096 8.21C2.54312 9.34949 2.19256 10.5764 2.06 11.836L3.83 10.598L3.096 8.21ZM2.072 14.27C2.272 16 2.872 17.61 3.778 19H7.586L8.856 17.73L7.21 12.79L5.162 12.108L2.072 14.268V14.27ZM5.452 21C6.258 21.764 7.182 22.406 8.192 22.896L7.354 21H5.454H5.452ZM10.772 23.774C12.2419 24.0765 13.7581 24.0765 15.228 23.774L16.808 20.222L15.586 19H10.414L9.194 20.22L10.772 23.774ZM17.806 22.896C18.8115 22.4068 19.7368 21.7675 20.55 21H18.65L17.806 22.896ZM22.22 19C23.1 17.652 23.692 16.1 23.908 14.43L20.82 12.114L18.79 12.79L17.144 17.73L18.414 19H22.22ZM23.952 11.964C23.8302 10.649 23.4711 9.36692 22.892 8.18L22.158 10.62L23.952 11.964ZM21.464 5.974C20.4404 4.7414 19.1608 3.74637 17.714 3.058L14 5.536V7.704L18.184 10.884L20.192 10.216L21.464 5.974ZM9.176 12.36L10.72 17H15.28L16.824 12.362L13 9.456L9.176 12.364V12.36Z" fill="white"/>
</svg>
