<svg width="28" height="20" viewBox="0 0 28 20" fill="none" xmlns="http://www.w3.org/2000/svg">
<path d="M18.75 0C19.0815 0 19.3995 0.131696 19.6339 0.366117C19.8683 0.600537 20 0.918479 20 1.25V6.5L26.5162 1.9375C26.6099 1.87182 26.7199 1.83312 26.8341 1.82563C26.9482 1.81813 27.0623 1.84213 27.1638 1.89499C27.2652 1.94786 27.3503 2.02757 27.4096 2.12544C27.4688 2.22331 27.5001 2.33557 27.5 2.45V17.55C27.5001 17.6644 27.4688 17.7767 27.4096 17.8746C27.3503 17.9724 27.2652 18.0521 27.1638 18.105C27.0623 18.1579 26.9482 18.1819 26.8341 18.1744C26.7199 18.1669 26.6099 18.1282 26.5162 18.0625L20 13.5V18.75C20 19.0815 19.8683 19.3995 19.6339 19.6339C19.3995 19.8683 19.0815 20 18.75 20H1.25C0.918479 20 0.600537 19.8683 0.366116 19.6339C0.131696 19.3995 0 19.0815 0 18.75V1.25C0 0.918479 0.131696 0.600537 0.366116 0.366117C0.600537 0.131696 0.918479 0 1.25 0H18.75ZM17.5 2.5H2.5V17.5H17.5V2.5ZM8 6.03625C8.09513 6.03599 8.18836 6.06288 8.26875 6.11375L13.7125 9.5775C13.7835 9.62265 13.8419 9.68499 13.8824 9.75873C13.9229 9.83248 13.9441 9.91525 13.9441 9.99938C13.9441 10.0835 13.9229 10.1663 13.8824 10.24C13.8419 10.3138 13.7835 10.3761 13.7125 10.4212L8.26875 13.8875C8.19293 13.9358 8.10548 13.9628 8.0156 13.9656C7.92573 13.9684 7.83677 13.947 7.75807 13.9035C7.67938 13.86 7.61388 13.796 7.56846 13.7184C7.52304 13.6408 7.49939 13.5524 7.5 13.4625V6.5375C7.5 6.40489 7.55268 6.27771 7.64645 6.18395C7.74021 6.09018 7.86739 6.03625 8 6.03625ZM25 6.05L20 9.55V10.4475L25 13.9475V6.05Z" fill="white"/>
</svg>
