<svg width="20" height="20" viewBox="0 0 20 20" fill="none" xmlns="http://www.w3.org/2000/svg">
<path d="M6.43505 5.75296C6.35905 5.94196 6.29305 6.13296 6.23705 6.32796C6.54805 6.42296 6.86705 6.52796 7.18605 6.64596C7.37173 5.98387 7.69284 5.36753 8.12905 4.83596L11.2931 7.99996L10.6981 8.59496C10.9508 8.8128 11.1881 9.04804 11.4081 9.29896L12.0001 8.70696L15.1651 11.872C14.6377 12.304 14.027 12.623 13.3711 12.809C13.4881 13.129 13.5931 13.447 13.6881 13.759C14.7229 13.4567 15.6566 12.88 16.3901 12.09C16.8665 11.5793 17.2503 10.9895 17.5241 10.347C18.0501 9.10696 18.1401 7.72696 17.7941 6.43896C17.52 5.425 16.9851 4.50053 16.2426 3.75766C15.5001 3.01479 14.5759 2.47944 13.5621 2.20496C12.3016 1.86728 10.9656 1.948 9.75505 2.43496C9.00766 2.7375 8.32866 3.18709 7.75835 3.75706C7.18804 4.32703 6.73804 5.00575 6.43505 5.75296V5.75296ZM16.6401 6.13296C16.3272 6.33961 15.9627 6.45433 15.5879 6.46405C15.2131 6.47377 14.8432 6.37812 14.5201 6.18796L15.8721 4.83496C16.1991 5.23496 16.4551 5.67296 16.6401 6.13296ZM13.7971 6.90996C14.7221 7.56896 15.9361 7.63996 16.9231 7.12496C17.0496 7.83432 17.0211 8.56265 16.8397 9.25999C16.6583 9.95733 16.3282 10.6072 15.8721 11.165L12.7071 7.99996L13.7971 6.90996ZM13.0901 6.20296L12.0001 7.29296L8.83605 4.12796C9.39375 3.672 10.0434 3.34201 10.7406 3.1606C11.4377 2.9792 12.1658 2.95066 12.8751 3.07696C12.6198 3.56734 12.5048 4.11866 12.5427 4.67021C12.5806 5.22176 12.77 5.75215 13.0901 6.20296V6.20296ZM13.8121 5.47996C13.622 5.15676 13.5266 4.78672 13.5365 4.41194C13.5464 4.03716 13.6612 3.67268 13.8681 3.35996C14.3281 3.54496 14.7651 3.80096 15.1651 4.12796L13.8121 5.47996ZM6.14705 11.146C6.24082 11.0522 6.36797 10.9996 6.50055 10.9996C6.63313 10.9996 6.76029 11.0522 6.85405 11.146L8.85405 13.146C8.94794 13.2397 9.00074 13.3669 9.00083 13.4996C9.00092 13.6323 8.94831 13.7596 8.85455 13.8535C8.7608 13.9473 8.63359 14.0001 8.50091 14.0002C8.36822 14.0003 8.24094 13.9477 8.14705 13.854L6.14705 11.854C6.10049 11.8075 6.06355 11.7523 6.03834 11.6916C6.01313 11.6308 6.00016 11.5657 6.00016 11.5C6.00016 11.4342 6.01313 11.3691 6.03834 11.3083C6.06355 11.2476 6.10049 11.1924 6.14705 11.146V11.146ZM2.04005 8.88096C1.96958 8.59794 1.97284 8.30159 2.04953 8.02019C2.12621 7.73879 2.27376 7.48175 2.47808 7.27362C2.6824 7.06549 2.93667 6.91322 3.2166 6.83134C3.49653 6.74947 3.79278 6.74073 4.07705 6.80596C4.98905 6.99796 6.14405 7.29796 7.27605 7.75196C8.40205 8.20396 9.53705 8.82096 10.3801 9.66296C11.2241 10.508 11.8381 11.643 12.2841 12.768C12.7331 13.898 13.0241 15.049 13.2091 15.957C13.2716 16.2396 13.2612 16.5335 13.1787 16.811C13.0962 17.0885 12.9444 17.3404 12.7375 17.5429C12.5307 17.7454 12.2757 17.8919 11.9965 17.9686C11.7174 18.0452 11.4233 18.0495 11.1421 17.981C9.38705 17.587 6.61005 16.746 4.95305 15.09C3.30005 13.436 2.44605 10.648 2.04005 8.88096ZM3.87105 7.78496C3.32705 7.67096 2.89105 8.11496 3.01505 8.65796C3.41805 10.416 4.22605 12.948 5.66005 14.383C7.09605 15.819 9.61605 16.613 11.3611 17.006C11.8991 17.126 12.3391 16.696 12.2291 16.156C12.0255 15.1259 11.7331 14.1155 11.3551 13.136C10.9341 12.075 10.3821 11.08 9.67305 10.37C8.96505 9.66196 7.96805 9.10696 6.90305 8.67996C5.84305 8.25396 4.74905 7.96896 3.87105 7.78496V7.78496Z" fill="#595959"/>
</svg>
