<svg width="20" height="20" viewBox="0 0 20 20" fill="none" xmlns="https://www.w3.org/2000/svg">
<path d="M18.3073 10.4024L16.5652 2.53738C16.5011 2.24982 16.3256 1.9994 16.0772 1.84107C15.8287 1.68274 15.5276 1.62942 15.2399 1.69281L7.37495 3.435C7.23248 3.46656 7.09762 3.52587 6.97807 3.60955C6.85852 3.69323 6.75662 3.79964 6.6782 3.9227C6.59978 4.04576 6.54636 4.18306 6.52101 4.32677C6.49565 4.47047 6.49885 4.61777 6.53042 4.76023L7.26033 8.05544H2.77788C2.48329 8.05577 2.20086 8.17294 1.99256 8.38125C1.78425 8.58955 1.66708 8.87198 1.66675 9.16657V17.2223C1.66708 17.5169 1.78425 17.7993 1.99256 18.0076C2.20086 18.2159 2.48329 18.3331 2.77788 18.3334H10.8336C11.1282 18.3331 11.4106 18.2159 11.6189 18.0076C11.8272 17.7993 11.9444 17.5169 11.9447 17.2223V12.9499L17.4628 11.7276C17.7503 11.6636 18.0007 11.4881 18.1591 11.2397C18.3174 10.9912 18.3707 10.6901 18.3073 10.4024V10.4024ZM10.8336 17.2223H2.77788V9.16657H7.50648L8.27257 12.6252C8.32729 12.8718 8.4643 13.0924 8.66107 13.2507C8.85784 13.4091 9.10266 13.4957 9.35523 13.4964C9.4368 13.4964 9.51811 13.4874 9.59774 13.4697L10.8339 13.1959L10.8343 17.2223H10.8336ZM17.2226 10.6427L9.35742 12.3849L7.61527 4.51981L15.4803 2.77756L17.2232 10.6425L17.2226 10.6427Z" fill="#595959"/>
<path d="M3.88892 10.2778H5.27783V11.6667H3.88892V10.2778ZM3.88892 14.7223H5.27783V16.1112H3.88892V14.7223ZM8.33345 14.7223H9.72236V16.1112H8.33345V14.7223ZM6.11118 12.5H7.5001V13.8889H6.11118V12.5ZM8.93957 5.3668L10.2956 5.06665L10.5958 6.42275L9.23971 6.7229L8.93957 5.3668ZM14.2408 8.74266L15.5969 8.44231L15.8972 9.79837L14.5411 10.0987L14.2408 8.74266ZM11.5906 7.05343L12.9466 6.75307L13.247 8.10911L11.891 8.40946L11.5906 7.05343Z" fill="#595959"/>
</svg>
