<svg width="20" height="20" viewBox="0 0 20 20" fill="none" xmlns="https://www.w3.org/2000/svg">
<path d="M17.5 10C17.5 5.85938 14.1406 2.5 10 2.5C5.85938 2.5 2.5 5.85938 2.5 10C2.5 14.1406 5.85938 17.5 10 17.5C14.1406 17.5 17.5 14.1406 17.5 10Z" stroke="#595959" stroke-width="1.5" stroke-miterlimit="10"/>
<path d="M8.45001 13.064L12.9207 10.3632C12.983 10.3252 13.0345 10.2719 13.0703 10.2082C13.106 10.1446 13.1248 10.0729 13.1248 9.99991C13.1248 9.92693 13.106 9.85519 13.0703 9.79157C13.0345 9.72795 12.983 9.67459 12.9207 9.63662L8.45001 6.93584C8.38593 6.89745 8.31278 6.8768 8.23809 6.876C8.16339 6.8752 8.08982 6.89429 8.02494 6.93131C7.96005 6.96832 7.90618 7.02193 7.86885 7.08664C7.83152 7.15134 7.81207 7.22481 7.81251 7.29951V12.7003C7.81207 12.775 7.83152 12.8485 7.86885 12.9132C7.90618 12.9779 7.96005 13.0315 8.02494 13.0685C8.08982 13.1055 8.16339 13.1246 8.23809 13.1238C8.31278 13.123 8.38593 13.1024 8.45001 13.064Z" fill="#595959"/>
</svg>
