<svg width="30" height="30" viewBox="0 0 30 30" fill="none" xmlns="https://www.w3.org/2000/svg">
<path d="M20.625 2.5C22.4484 2.5 24.197 3.22433 25.4864 4.51364C26.7757 5.80295 27.5 7.55164 27.5 9.375V12.5C27.5006 13.0275 27.3895 13.5492 27.1741 14.0307C26.9586 14.5122 26.6437 14.9427 26.25 15.2937V21.25C26.25 22.0256 26.0095 22.782 25.5618 23.4153C25.1141 24.0486 24.4811 24.5276 23.75 24.7863V26.25C23.75 26.5815 23.6183 26.8995 23.3839 27.1339C23.1495 27.3683 22.8315 27.5 22.5 27.5H7.5C7.16848 27.5 6.85054 27.3683 6.61612 27.1339C6.3817 26.8995 6.25 26.5815 6.25 26.25V24.7875C5.51866 24.5287 4.88553 24.0496 4.4378 23.4161C3.99007 22.7825 3.74978 22.0258 3.75 21.25V7.5C3.75 6.17392 4.27678 4.90215 5.21447 3.96447C6.15215 3.02678 7.42392 2.5 8.75 2.5H20.625ZM11.875 13.75H6.25V21.25C6.25004 21.5562 6.36245 21.8517 6.56589 22.0805C6.76934 22.3093 7.04969 22.4554 7.35375 22.4913L7.5 22.5H22.5C22.8062 22.5 23.1017 22.3876 23.3305 22.1841C23.5593 21.9807 23.7054 21.7003 23.7413 21.3963L23.75 21.25V16.25H16.205C16.0547 17.2912 15.5343 18.2434 14.739 18.9321C13.9438 19.6209 12.927 20 11.875 20H7.5V17.5H11.875C12.3409 17.5 12.7901 17.3266 13.1351 17.0134C13.4801 16.7003 13.6962 16.27 13.7413 15.8063L13.75 15.625C13.75 15.1589 13.5764 14.7095 13.263 14.3645C12.9496 14.0194 12.519 13.8035 12.055 13.7587L11.875 13.75ZM20.625 5H8.75C8.11928 4.9998 7.51179 5.23801 7.04932 5.66687C6.58684 6.09573 6.30355 6.68356 6.25625 7.3125L6.25 7.5V11.25H11.875C12.7031 11.2498 13.5142 11.4847 14.2141 11.9272C14.9139 12.3698 15.4739 13.0018 15.8288 13.75H23.75C24.0562 13.75 24.3517 13.6376 24.5805 13.4341C24.8093 13.2307 24.9554 12.9503 24.9913 12.6462L25 12.5V9.375C25.0001 8.25617 24.5715 7.17982 23.8024 6.36724C23.0333 5.55467 21.9821 5.06763 20.865 5.00625L20.625 5Z" fill="white"/>
</svg>
