<svg width="20" height="20" viewBox="0 0 20 20" fill="none" xmlns="http://www.w3.org/2000/svg">
<path d="M15.8916 4.10831C14.32 2.59032 12.2149 1.75037 10.03 1.76936C7.84499 1.78834 5.75489 2.66475 4.20982 4.20982C2.66475 5.75489 1.78834 7.84499 1.76936 10.03C1.75037 12.2149 2.59032 14.32 4.10831 15.8916C5.67999 17.4096 7.78501 18.2496 9.96999 18.2306C12.155 18.2116 14.2451 17.3352 15.7901 15.7901C17.3352 14.2451 18.2116 12.155 18.2306 9.96999C18.2496 7.78501 17.4096 5.67999 15.8916 4.10831ZM5.28331 5.28331C6.22222 4.34401 7.42027 3.70655 8.72387 3.45266C10.0275 3.19877 11.3772 3.34003 12.6 3.85831L12.3583 4.10831L12.95 4.69998L13.3833 4.25831C13.6249 4.40409 13.8586 4.56265 14.0833 4.73331L4.73331 14.0833C4.56265 13.8586 4.40409 13.6249 4.25831 13.3833L4.69998 12.95L4.10831 12.3583L3.86664 12.6C3.34732 11.378 3.20472 10.0288 3.45712 8.7252C3.70951 7.42165 4.34541 6.22315 5.28331 5.28331ZM14.7166 14.7166C13.7777 15.6559 12.5797 16.2934 11.2761 16.5473C9.97248 16.8012 8.62276 16.6599 7.39998 16.1416L7.64164 15.8916L7.04998 15.3L6.61664 15.7416C6.37504 15.5959 6.14137 15.4373 5.91664 15.2666L15.2666 5.91664C15.4373 6.14137 15.5959 6.37504 15.7416 6.61664L15.3 7.04998L15.8916 7.64164L16.1333 7.39998C16.6526 8.62197 16.7952 9.9712 16.5428 11.2748C16.2904 12.5783 15.6545 13.7768 14.7166 14.7166ZM9.40831 12.95L9.99998 13.5333L8.82498 14.7166L8.23331 14.1666L9.40831 12.95ZM11.7666 10.5916L12.3583 11.175L11.175 12.3583L10.5916 11.7666L11.7666 10.5916ZM14.1666 8.23331L14.7583 8.82498L13.5333 9.99998L12.95 9.40831L14.1666 8.23331ZM10.5916 7.04998L9.99998 6.46664L11.175 5.28331L11.7666 5.87498L10.5916 7.04998ZM8.23331 9.40831L7.64164 8.82498L8.82498 7.64164L9.40831 8.23331L8.23331 9.40831ZM5.87498 11.7666L5.28331 11.175L6.46664 9.99998L7.04998 10.5916L5.87498 11.7666Z" fill="white"/>
</svg>
