<svg width="30" height="30" viewBox="0 0 30 30" fill="none" xmlns="https://www.w3.org/2000/svg">
<path d="M14.2571 7.72093C13.4781 7.7202 12.7865 8.00953 12.2361 8.55987C11.6856 9.11038 11.3963 9.80219 11.3963 10.5814L11.3963 10.5826L24.9535 15.6977L24.9511 16.6977C25.4679 16.6989 25.9478 16.513 26.3229 16.1378C26.698 15.7628 26.8837 15.2834 26.8837 14.7674V11.9316M14.2571 7.72093C15.0362 7.72102 15.7278 8.01037 16.2783 8.5608C16.8286 9.11114 17.1179 9.80272 17.1172 10.5817M14.2571 7.72093C14.257 7.72093 14.2569 7.72093 14.2567 7.72093V8.72093L14.258 7.72093C14.2577 7.72093 14.2574 7.72093 14.2571 7.72093ZM17.1172 10.5817C17.1172 10.6583 17.1144 10.734 17.1088 10.8088L17.8729 9.58628L17.8747 9.58346C17.8833 9.56981 17.892 9.55625 17.9007 9.54278C17.5266 9.4024 17.1856 9.18031 16.8864 8.88106C16.3355 8.33022 16.0465 7.63784 16.0484 6.85804M17.1172 10.5817C17.1172 10.5816 17.1172 10.5815 17.1172 10.5814H16.1172L17.1172 10.5826C17.1172 10.5823 17.1172 10.582 17.1172 10.5817ZM16.0484 6.85804L17.0484 6.86047H16.0484C16.0484 6.85966 16.0484 6.85885 16.0484 6.85804ZM16.0484 6.85804C16.049 6.07982 16.3383 5.38888 16.8882 4.83894C17.4385 4.28865 18.13 3.99906 18.9091 4L18.9079 5V4C19.6871 4 20.3789 4.28936 20.9294 4.83987C21.4797 5.39013 21.769 6.08159 21.7684 6.86047M21.7684 6.86047H20.7684L21.7684 6.86168C21.7684 6.86128 21.7684 6.86087 21.7684 6.86047ZM21.7684 6.86047C21.7684 7.3961 21.6316 7.89044 21.3673 8.32597C21.435 8.34882 21.5024 8.37417 21.5695 8.40202L21.5787 8.40586L21.5787 8.4059L25.7183 10.1733L25.7289 10.1779L25.7394 10.1827C26.0677 10.3319 26.349 10.5603 26.5581 10.8656C26.7777 11.1864 26.8846 11.5519 26.8837 11.9316M26.8837 11.9316C26.8837 11.9322 26.8837 11.9329 26.8837 11.9336L25.8837 11.9302H26.8837V11.9316ZM23.4991 12.5349L23.4552 12.3132L22.3507 11.8837L22.5809 13.0462L23.0251 13.219M23.4991 12.5349H23.0251V13.219M23.4991 12.5349L23.6766 13.4311M23.4991 12.5349H24.0251L23.6766 13.4311M23.0251 13.219L23.6627 13.4669L23.6766 13.4311M23.0251 13.219V14.7644M23.6766 13.4311L23.9411 14.7668M23.9411 14.7668L24.0251 14.7674H23.9413M23.9411 14.7668L23.9413 14.7674M23.9411 14.7668L23.0251 14.7604C23.0251 14.7617 23.0251 14.7631 23.0251 14.7644M23.9413 14.7674H23.0251V14.7644M23.9413 14.7674L24.1084 15.6115L24.3023 16.5905C24.0377 16.4987 23.7939 16.3477 23.5831 16.1369C23.2077 15.7615 23.0224 15.2812 23.0251 14.7644M14.6842 13.5957L14.7223 13.6328L14.7231 13.6336C15.1108 13.5582 15.4729 13.4473 15.8094 13.3009C15.718 13.2487 15.6338 13.1932 15.5564 13.1349M14.6842 13.5957L14.9088 13.3707M14.6842 13.5957L14.6288 13.6512L14.6405 13.7167L14.6429 13.7301L14.8039 14.6357C15.0622 14.5898 15.3135 14.5302 15.5572 14.4565C15.6274 14.4353 15.6969 14.4129 15.7658 14.3893C15.7707 14.3913 15.7756 14.3934 15.7805 14.3953C16.0977 14.5245 16.4282 14.6163 16.7717 14.6707L16.6521 15.6279M14.6842 13.5957L14.6053 13.5188L14.5155 13.4312M14.9088 13.3707C15.1352 13.3193 15.3517 13.2404 15.5564 13.1349M14.9088 13.3707L15.3352 12.9433C15.4021 13.0101 15.4756 13.0741 15.5564 13.1349M14.9088 13.3707C14.8041 13.3944 14.6973 13.4123 14.5885 13.4241C14.5642 13.4268 14.5399 13.4291 14.5155 13.4312M15.5564 13.1349C15.8122 13.0029 16.0497 12.8293 16.2656 12.6156C16.27 12.6112 16.2744 12.6067 16.2789 12.6023C16.6907 12.1898 16.956 11.6981 17.0632 11.15M17.0632 11.15L16.9427 11.0747L16.9429 11.0743C16.68 11.4934 16.3452 11.8341 15.9318 12.1039C15.9011 12.1239 15.87 12.1435 15.8384 12.1626C15.4476 12.4 14.9902 12.5712 14.4538 12.6666L14.2567 12.7016M17.0632 11.15L17.7907 11.6047L17.0634 11.1487C17.0634 11.1491 17.0633 11.1495 17.0632 11.15ZM14.5155 13.4312L14.2567 13.1789V12.7016M14.5155 13.4312C14.4303 13.4384 14.3439 13.4419 14.2564 13.4419C13.6809 13.4418 13.1531 13.2839 12.6949 12.9793M14.2567 12.7016V12.4423L14.2564 12.7017M14.2567 12.7016L14.2564 12.7017M14.2564 12.7017L14.2559 13.1781M14.2564 12.7017L13.8427 12.7752M14.2559 13.1781L11.6807 11.8325C11.5577 11.5826 11.4739 11.3157 11.4306 11.0347C11.6085 11.0708 11.7832 11.1244 11.953 11.1971C12.2975 11.3448 12.6013 11.5594 12.8659 11.8229M14.2559 13.1781L13.8427 12.7752M14.2559 13.1781L12.6949 12.9793M13.8427 12.7752L12.9415 11.8966L12.8659 11.8229M13.8427 12.7752L12.6949 12.9793M12.8659 11.8229C12.8676 11.8245 12.8692 11.8261 12.8708 11.8278L12.1675 12.5311L12.8659 11.8229ZM12.6949 12.9793L12.6311 12.9906L13.9777 14.3036L14.0242 14.3488C14.3653 14.6899 14.7569 14.969 15.1991 15.186C15.2709 15.2213 15.3438 15.2547 15.4178 15.2863C15.7996 15.4491 16.2111 15.563 16.6521 15.6279M16.6521 15.6279C16.7498 15.6401 16.8409 15.6638 16.9254 15.6989C17.0075 15.7073 17.09 15.7141 17.173 15.7191L17.4707 15.7371L17.5317 15.7023L17.7296 15.5892C17.8537 15.5182 17.9753 15.4451 18.0942 15.3696C18.0665 15.335 18.0375 15.3011 18.0073 15.268C17.7923 15.0326 17.5359 14.8604 17.2516 14.7526C17.2451 14.7501 17.2386 14.7477 17.232 14.7453C17.202 14.7343 17.1718 14.724 17.1412 14.7145C17.0235 14.7051 16.9073 14.6916 16.7925 14.674L16.6521 15.6279ZM18.3903 16.2714L18.2847 15.6549C18.3754 15.8212 18.4406 15.9999 18.4775 16.1885M18.3903 16.2714L18.0893 16.5581M18.3903 16.2714L18.4395 16.5581H18.0893M18.3903 16.2714L18.4775 16.1885M18.0893 16.5581H17.5126L18.0877 16.5597M18.0893 16.5581L18.0877 16.5597M18.0877 16.5597L17.2866 17.3226L16.8229 17.7642L16.5126 18.0598V18.4884V18.4903C16.6113 18.4972 16.7087 18.4965 16.8043 18.4884C17.0033 18.4715 17.1946 18.4225 17.3742 18.3431C17.5702 18.2564 17.7523 18.1335 17.9154 17.9766C18.2549 17.6503 18.4495 17.2411 18.4996 16.7936M18.0877 16.5597L18.4399 16.5606L18.4804 16.7969L18.4996 16.7936M18.4996 16.7936L19.466 16.6279L18.7764 15.9038L18.4775 16.1885M18.4996 16.7936C18.5082 16.7166 18.5125 16.6385 18.5126 16.5595C18.5128 16.4323 18.5009 16.3084 18.4775 16.1885M9.86046 20.1163V19.9231L8.86046 19V20.3609L9.06977 20.5541M9.86046 20.1163H9.06977V20.5541M9.86046 20.1163V20.343M9.86046 20.1163H10.0698L9.86046 20.343M9.06977 20.5541V21.0465V21.2558V22.2514L9.56757 21.7536L9.86046 21.4607V21.0465V20.343M9.06977 20.5541L9.39149 20.8511L9.86046 20.343M25.7034 23.6643L24.7234 23.8603L25.7037 23.6662L25.7036 23.6653C25.7035 23.665 25.7034 23.6647 25.7034 23.6643ZM23.7674 26C23.7677 26 23.7681 26 23.7684 26V25L23.7665 26C23.7668 26 23.7671 26 23.7674 26ZM21.84 24.4786L21.8422 24.4881L22.8149 24.2558L21.8371 24.4653C21.838 24.4698 21.839 24.4742 21.84 24.4786ZM21.5952 19.1483L21.3265 18.0233L20.4889 18.821L20.7576 19.9461L21.5952 19.1483ZM19.0435 9.71808C19.2589 9.51199 19.5157 9.36162 19.8139 9.26698C20.0743 9.18436 20.3322 9.15411 20.5878 9.17623L19.0435 9.71808ZM18.0347 14.1969L18.2216 15.2871C18.4058 15.1657 18.5835 15.0386 18.7544 14.9056C18.8798 14.8081 19.001 14.7056 19.1181 14.5982L18.9079 13.3721C18.6753 13.6512 18.4195 13.8992 18.1405 14.1163C18.1056 14.1434 18.0703 14.1703 18.0347 14.1969ZM18.4404 26C18.4412 26 18.442 26 18.4428 26V25L18.4404 26ZM20.0627 20.6079L20.373 20.3123V19.8837H19.373L20.0627 20.6079ZM16.4254 18.4823C16.4269 18.4824 16.4285 18.4826 16.43 18.4828L16.5358 17.4884L16.4192 18.4816C16.4213 18.4818 16.4233 18.482 16.4254 18.4823ZM12.827 15.8019C12.8233 15.7982 12.8195 15.7944 12.8158 15.7907L12.1646 15.1395L11.4575 15.8466L12.1078 16.4969L12.8156 15.7909L12.1087 16.4978C12.1274 16.5165 12.1461 16.5351 12.1649 16.5535L12.8718 15.8466L12.827 15.8019ZM11.3845 17.3338L10.694 16.6268L9.9786 17.3256L10.6857 18.0327L11.3845 17.3338ZM5.83851 20.0496L6.06302 20.6517L7 20.3023L6.29289 19.5952L5.83851 20.0496ZM11.0009 25L10.9986 26L11.0009 25Z" stroke="black" stroke-width="2"/>
</svg>
