<svg width="20" height="20" viewBox="0 0 20 20" fill="none" xmlns="http://www.w3.org/2000/svg">
<path fill-rule="evenodd" clip-rule="evenodd" d="M15.8925 15.8926C19.1467 12.6384 19.1467 7.36178 15.8925 4.10762C12.6383 0.853451 7.36166 0.853451 4.1075 4.10762C0.853329 7.36178 0.853329 12.6384 4.1075 15.8926C7.36166 19.1468 12.6383 19.1468 15.8925 15.8926ZM16.6192 9.20095C16.4423 7.7189 15.7712 6.33968 14.7142 5.28595C13.6565 4.22509 12.2712 3.55312 10.7833 3.37928L10.775 3.42595C10.4367 5.25035 9.55327 6.92933 8.24124 8.24136C6.9292 9.5534 5.25023 10.4368 3.42583 10.7751L3.37916 10.7835C3.553 12.2713 4.22496 13.6567 5.28583 14.7143C6.33956 15.7714 7.71878 16.4425 9.20083 16.6193L9.21083 16.5609C9.54896 14.7364 10.4323 13.0572 11.7444 11.745C13.0564 10.4328 14.7355 9.54929 16.56 9.21095L16.6183 9.20095H16.6192ZM16.56 11.191V10.9126C15.1828 11.2276 13.9223 11.9245 12.9234 12.9235C11.9244 13.9225 11.2274 15.1829 10.9125 16.5601H11.1908C12.5264 16.3195 13.7561 15.6753 14.7142 14.7143C15.6752 13.7562 16.3195 12.5265 16.56 11.191ZM3.42666 9.07428V8.88845C3.65543 7.52308 4.30549 6.26345 5.28583 5.28595C6.26325 4.30536 7.52288 3.655 8.88833 3.42595H9.07333C8.75839 4.80315 8.06142 6.06361 7.06246 7.06258C6.06349 8.06155 4.80303 8.75852 3.42583 9.07345L3.42666 9.07428Z" fill="black"/>
</svg>
