<svg width="20" height="20" viewBox="0 0 20 20" fill="none" xmlns="https://www.w3.org/2000/svg">
<path d="M10 1.875C5.52 1.875 1.875 5.52 1.875 10C1.875 14.48 5.52 18.125 10 18.125C14.48 18.125 18.125 14.48 18.125 10C18.125 5.52 14.48 1.875 10 1.875ZM10 3.125C10.9196 3.12504 11.8297 3.31022 12.6761 3.6695C13.5226 4.02879 14.2881 4.55482 14.9269 5.21625C14.275 5.68822 13.7293 6.29161 13.325 6.9875L14.4 7.61875C14.7313 7.05232 15.1799 6.56326 15.7156 6.18438C16.4728 7.31273 16.8764 8.64116 16.875 10C16.875 11.4106 16.4469 12.7231 15.7156 13.8156C15.172 13.4297 14.7171 12.9322 14.3813 12.3563L13.3 12.9813C13.7106 13.689 14.2648 14.303 14.9269 14.7837C14.2881 15.4452 13.5226 15.9712 12.6761 16.3305C11.8297 16.6898 10.9196 16.875 10 16.875C9.08045 16.875 8.17032 16.6898 7.32386 16.3305C6.4774 15.9712 5.71195 15.4452 5.07312 14.7837C5.73543 14.303 6.28981 13.689 6.70062 12.9813L5.61938 12.3563C5.28339 12.9322 4.82824 13.4298 4.28438 13.8156C3.52722 12.6873 3.12358 11.3588 3.125 10C3.125 8.58938 3.55313 7.27688 4.28438 6.18438C4.8203 6.56301 5.26908 7.05185 5.60063 7.61813L6.675 6.98687C6.27064 6.29122 5.72494 5.68804 5.07312 5.21625C5.71195 4.55482 6.4774 4.02879 7.32386 3.6695C8.17032 3.31022 9.08045 3.12504 10 3.125ZM7.2375 8.25625L6.04375 8.625C6.18125 9.075 6.25 9.5375 6.25 10C6.25 10.4563 6.1875 10.9062 6.05625 11.3437L7.25 11.7C7.58696 10.5762 7.58261 9.3776 7.2375 8.25625ZM12.7625 8.25625C12.4174 9.3776 12.413 10.5762 12.75 11.7L13.9437 11.3437C13.8125 10.9062 13.75 10.4563 13.75 10C13.75 9.5375 13.8187 9.075 13.9562 8.625L12.7625 8.25625Z" fill="white"/>
</svg>
