<svg width="30" height="30" viewBox="0 0 30 30" fill="none" xmlns="https://www.w3.org/2000/svg">
<path d="M26.1859 15C26.1859 17.9667 25.0074 20.8119 22.9096 22.9097C20.8118 25.0075 17.9666 26.186 14.9999 26.186V28C22.1795 28 27.9999 22.1796 27.9999 15H26.1859ZM14.9999 26.186C12.0332 26.186 9.18794 25.0075 7.09015 22.9097C4.99236 20.8119 3.81383 17.9667 3.81383 15H1.99988C1.99988 22.1796 7.82025 28 14.9999 28V26.186ZM3.81383 15C3.81383 12.0333 4.99236 9.18806 7.09015 7.09027C9.18794 4.99248 12.0332 3.81395 14.9999 3.81395V2C7.82025 2 1.99988 7.82037 1.99988 15H3.81383ZM19.2324 17.7209C17.3883 17.7209 15.6196 16.9883 14.3156 15.6843C13.0115 14.3803 12.2789 12.6116 12.2789 10.7674H10.465C10.465 13.0927 11.3887 15.3227 13.0329 16.967C14.6771 18.6112 16.9072 19.5349 19.2324 19.5349V17.7209ZM25.1882 14.3579C24.5698 15.3845 23.6964 16.2336 22.6528 16.8229C21.6092 17.4122 20.4309 17.7216 19.2324 17.7209V19.5349C20.7434 19.5357 22.2289 19.1458 23.5447 18.4032C24.8606 17.6605 25.962 16.5902 26.7422 15.2963L25.1882 14.3579ZM12.2789 10.7674C12.2784 9.56899 12.5878 8.39076 13.1771 7.34718C13.7664 6.3036 14.6155 5.43015 15.642 4.81163L14.7036 3.25888C13.4097 4.03887 12.3395 5.14013 11.5969 6.45576C10.8542 7.77138 10.4643 9.25667 10.465 10.7674H12.2789ZM14.9999 3.81395C14.8772 3.81106 14.7607 3.75976 14.6758 3.67126C14.6239 3.62075 14.5892 3.55516 14.5766 3.48381C14.5718 3.44633 14.5742 3.33749 14.7036 3.25888L15.642 4.81163C16.2503 4.444 16.4462 3.77042 16.3749 3.24074C16.2999 2.69051 15.8669 2 14.9999 2V3.81395ZM26.7422 15.2963C26.6624 15.4257 26.5536 15.4281 26.5161 15.4233C26.4447 15.4107 26.3791 15.376 26.3286 15.3241C26.2401 15.2392 26.1888 15.1226 26.1859 15H27.9999C27.9999 14.1329 27.3094 13.7 26.7591 13.625C26.2295 13.5537 25.5559 13.7496 25.1882 14.3579L26.7422 15.2963Z" fill="white"/>
</svg>
