<svg width="28" height="28" viewBox="0 0 28 28" fill="none" xmlns="https://www.w3.org/2000/svg">
<path fill-rule="evenodd" clip-rule="evenodd" d="M23.429 23.428C28.6356 18.2213 28.6356 9.77866 23.429 4.57199C18.2223 -0.634674 9.77964 -0.634674 4.57297 4.57199C-0.633698 9.77866 -0.633698 18.2213 4.57297 23.428C9.77964 28.6347 18.2223 28.6347 23.429 23.428ZM24.5916 12.7213C24.3087 10.35 23.2349 8.1433 21.5436 6.45733C19.8514 4.75994 17.6349 3.6848 15.2543 3.40666L15.241 3.48133C14.6997 6.40036 13.2862 9.08673 11.187 11.186C9.0877 13.2852 6.40134 14.6987 3.4823 15.24L3.40764 15.2533C3.68578 17.6339 4.76092 19.8505 6.4583 21.5427C8.14427 23.234 10.351 24.3078 12.7223 24.5907L12.7383 24.4973C13.2793 21.578 14.6927 18.8914 16.792 16.7919C18.8913 14.6924 21.5777 13.2787 24.497 12.7373L24.5903 12.7213H24.5916ZM24.497 15.9053V15.46C22.2934 15.9639 20.2767 17.079 18.6784 18.6774C17.08 20.2757 15.9649 22.2925 15.461 24.496H15.9063C18.0432 24.111 20.0107 23.0803 21.5436 21.5427C23.0813 20.0097 24.1121 18.0422 24.497 15.9053ZM3.48364 12.5187V12.2213C3.84966 10.0367 4.88977 8.02133 6.4583 6.45733C8.02218 4.88837 10.0376 3.8478 12.2223 3.48133H12.5183C12.0144 5.68485 10.8993 7.70158 9.30091 9.29993C7.70256 10.8983 5.68583 12.0134 3.4823 12.5173L3.48364 12.5187Z" fill="white"/>
</svg>
